<mxfile host="app.diagrams.net" modified="2023-10-26T16:35:21.924Z" agent="Mozilla/5.0 (Windows NT 10.0; Win64; x64) AppleWebKit/537.36 (KHTML, like Gecko) Chrome/118.0.0.0 Safari/537.36 Edg/118.0.2088.61" etag="c9NAY5eE_CJQ8FVKau5i" version="22.0.8" type="github">
  <diagram name="Page-1" id="MRqP59V1FNYEx-BHDgKM">
    <mxGraphModel dx="752" dy="430" grid="1" gridSize="10" guides="1" tooltips="1" connect="1" arrows="1" fold="1" page="1" pageScale="1" pageWidth="850" pageHeight="1100" math="0" shadow="0">
      <root>
        <mxCell id="0" />
        <mxCell id="1" parent="0" />
        <mxCell id="uaCIivhBD1w0e1zkZIID-4" value="" style="endArrow=classic;html=1;rounded=0;exitX=1;exitY=1;exitDx=0;exitDy=0;" edge="1" parent="1" source="uaCIivhBD1w0e1zkZIID-7">
          <mxGeometry width="50" height="50" relative="1" as="geometry">
            <mxPoint x="160" y="360" as="sourcePoint" />
            <mxPoint x="640" y="360" as="targetPoint" />
          </mxGeometry>
        </mxCell>
        <mxCell id="uaCIivhBD1w0e1zkZIID-5" value="" style="endArrow=classic;html=1;rounded=0;" edge="1" parent="1">
          <mxGeometry width="50" height="50" relative="1" as="geometry">
            <mxPoint x="160" y="480" as="sourcePoint" />
            <mxPoint x="640" y="480" as="targetPoint" />
          </mxGeometry>
        </mxCell>
        <mxCell id="uaCIivhBD1w0e1zkZIID-8" value="" style="endArrow=classic;html=1;rounded=0;" edge="1" parent="1" target="uaCIivhBD1w0e1zkZIID-7">
          <mxGeometry width="50" height="50" relative="1" as="geometry">
            <mxPoint x="160" y="360" as="sourcePoint" />
            <mxPoint x="640" y="360" as="targetPoint" />
          </mxGeometry>
        </mxCell>
        <mxCell id="uaCIivhBD1w0e1zkZIID-7" value="" style="swimlane;startSize=0;" vertex="1" parent="1">
          <mxGeometry x="160" y="330" width="160" height="30" as="geometry" />
        </mxCell>
        <mxCell id="uaCIivhBD1w0e1zkZIID-27" value="A" style="text;html=1;strokeColor=none;fillColor=none;align=center;verticalAlign=middle;whiteSpace=wrap;rounded=0;" vertex="1" parent="uaCIivhBD1w0e1zkZIID-7">
          <mxGeometry x="50" width="60" height="30" as="geometry" />
        </mxCell>
        <mxCell id="uaCIivhBD1w0e1zkZIID-9" value="t&lt;span style=&quot;font-size: 10px;&quot;&gt;&lt;sub&gt;0&lt;/sub&gt;&lt;/span&gt;" style="text;html=1;strokeColor=none;fillColor=none;align=center;verticalAlign=middle;whiteSpace=wrap;rounded=0;" vertex="1" parent="1">
          <mxGeometry x="130" y="370" width="60" height="30" as="geometry" />
        </mxCell>
        <mxCell id="uaCIivhBD1w0e1zkZIID-11" value="" style="endArrow=classic;html=1;rounded=0;" edge="1" parent="1">
          <mxGeometry width="50" height="50" relative="1" as="geometry">
            <mxPoint x="160" y="380" as="sourcePoint" />
            <mxPoint x="160" y="360" as="targetPoint" />
          </mxGeometry>
        </mxCell>
        <mxCell id="uaCIivhBD1w0e1zkZIID-14" value="" style="swimlane;startSize=0;strokeWidth=2;fillColor=#dae8fc;strokeColor=#6c8ebf;" vertex="1" parent="1">
          <mxGeometry x="180" y="450" width="160" height="30" as="geometry" />
        </mxCell>
        <mxCell id="uaCIivhBD1w0e1zkZIID-34" value="C" style="text;html=1;strokeColor=none;fillColor=none;align=center;verticalAlign=middle;whiteSpace=wrap;rounded=0;" vertex="1" parent="uaCIivhBD1w0e1zkZIID-14">
          <mxGeometry x="90" y="-30" width="60" height="30" as="geometry" />
        </mxCell>
        <mxCell id="uaCIivhBD1w0e1zkZIID-16" value="t/2" style="text;html=1;strokeColor=none;fillColor=none;align=center;verticalAlign=middle;whiteSpace=wrap;rounded=0;" vertex="1" parent="1">
          <mxGeometry x="150" y="490" width="60" height="30" as="geometry" />
        </mxCell>
        <mxCell id="uaCIivhBD1w0e1zkZIID-17" value="" style="endArrow=classic;html=1;rounded=0;entryX=0;entryY=1;entryDx=0;entryDy=0;" edge="1" parent="1" target="uaCIivhBD1w0e1zkZIID-14">
          <mxGeometry width="50" height="50" relative="1" as="geometry">
            <mxPoint x="180" y="500" as="sourcePoint" />
            <mxPoint x="200" y="480" as="targetPoint" />
          </mxGeometry>
        </mxCell>
        <mxCell id="uaCIivhBD1w0e1zkZIID-19" value="" style="swimlane;startSize=0;fillColor=#4DACFF;strokeColor=#6c8ebf;gradientColor=default;strokeWidth=2;" vertex="1" parent="1">
          <mxGeometry x="220" y="300" width="160" height="30" as="geometry" />
        </mxCell>
        <mxCell id="uaCIivhBD1w0e1zkZIID-25" value="" style="swimlane;startSize=0;strokeWidth=2;fillColor=#dae8fc;strokeColor=#BF5108;" vertex="1" parent="uaCIivhBD1w0e1zkZIID-19">
          <mxGeometry x="40" y="-30" width="160" height="30" as="geometry" />
        </mxCell>
        <mxCell id="uaCIivhBD1w0e1zkZIID-35" value="C" style="text;html=1;strokeColor=none;fillColor=none;align=center;verticalAlign=middle;whiteSpace=wrap;rounded=0;" vertex="1" parent="uaCIivhBD1w0e1zkZIID-25">
          <mxGeometry x="50" width="60" height="30" as="geometry" />
        </mxCell>
        <mxCell id="uaCIivhBD1w0e1zkZIID-32" value="B" style="text;html=1;strokeColor=none;fillColor=none;align=center;verticalAlign=middle;whiteSpace=wrap;rounded=0;" vertex="1" parent="uaCIivhBD1w0e1zkZIID-19">
          <mxGeometry x="50" width="60" height="30" as="geometry" />
        </mxCell>
        <mxCell id="uaCIivhBD1w0e1zkZIID-21" value="" style="endArrow=classic;html=1;rounded=0;" edge="1" parent="1">
          <mxGeometry width="50" height="50" relative="1" as="geometry">
            <mxPoint x="160" y="560" as="sourcePoint" />
            <mxPoint x="640" y="560" as="targetPoint" />
          </mxGeometry>
        </mxCell>
        <mxCell id="uaCIivhBD1w0e1zkZIID-22" value="" style="swimlane;startSize=0;strokeWidth=2;fillColor=#dae8fc;strokeColor=#BF5108;" vertex="1" parent="1">
          <mxGeometry x="220" y="530" width="160" height="30" as="geometry" />
        </mxCell>
        <mxCell id="uaCIivhBD1w0e1zkZIID-33" value="C" style="text;html=1;strokeColor=none;fillColor=none;align=center;verticalAlign=middle;whiteSpace=wrap;rounded=0;" vertex="1" parent="uaCIivhBD1w0e1zkZIID-22">
          <mxGeometry x="40" width="60" height="30" as="geometry" />
        </mxCell>
        <mxCell id="uaCIivhBD1w0e1zkZIID-24" value="" style="swimlane;startSize=0;strokeWidth=2;fillColor=#dae8fc;strokeColor=#BF5108;" vertex="1" parent="1">
          <mxGeometry x="220" y="420" width="160" height="30" as="geometry" />
        </mxCell>
        <mxCell id="uaCIivhBD1w0e1zkZIID-28" value="3t/2" style="text;html=1;strokeColor=none;fillColor=none;align=center;verticalAlign=middle;whiteSpace=wrap;rounded=0;" vertex="1" parent="1">
          <mxGeometry x="190" y="580" width="60" height="30" as="geometry" />
        </mxCell>
        <mxCell id="uaCIivhBD1w0e1zkZIID-29" value="" style="endArrow=classic;html=1;rounded=0;exitX=0.5;exitY=0;exitDx=0;exitDy=0;entryX=0;entryY=1;entryDx=0;entryDy=0;" edge="1" parent="1" source="uaCIivhBD1w0e1zkZIID-28" target="uaCIivhBD1w0e1zkZIID-22">
          <mxGeometry width="50" height="50" relative="1" as="geometry">
            <mxPoint x="170" y="430" as="sourcePoint" />
            <mxPoint x="170" y="410" as="targetPoint" />
          </mxGeometry>
        </mxCell>
        <mxCell id="uaCIivhBD1w0e1zkZIID-30" value="B" style="text;html=1;strokeColor=none;fillColor=none;align=center;verticalAlign=middle;whiteSpace=wrap;rounded=0;" vertex="1" parent="1">
          <mxGeometry x="240" y="450" width="60" height="30" as="geometry" />
        </mxCell>
        <mxCell id="uaCIivhBD1w0e1zkZIID-36" value="" style="endArrow=classic;html=1;rounded=0;entryX=1;entryY=1;entryDx=0;entryDy=0;" edge="1" parent="1" target="uaCIivhBD1w0e1zkZIID-7">
          <mxGeometry width="50" height="50" relative="1" as="geometry">
            <mxPoint x="320" y="380" as="sourcePoint" />
            <mxPoint x="170" y="370" as="targetPoint" />
          </mxGeometry>
        </mxCell>
        <mxCell id="uaCIivhBD1w0e1zkZIID-37" value="4t" style="text;html=1;strokeColor=none;fillColor=none;align=center;verticalAlign=middle;whiteSpace=wrap;rounded=0;" vertex="1" parent="1">
          <mxGeometry x="290" y="370" width="60" height="30" as="geometry" />
        </mxCell>
      </root>
    </mxGraphModel>
  </diagram>
</mxfile>
